<?xml version="1.0" encoding="UTF-8"?>
<!DOCTYPE svg PUBLIC "-//W3C//DTD SVG 1.1//EN" "http://www.w3.org/Graphics/SVG/1.1/DTD/svg11.dtd">
<!-- Creator: CorelDRAW 2017 -->
<svg xmlns="http://www.w3.org/2000/svg" xml:space="preserve" width="250px" height="150px" version="1.1" style="shape-rendering:geometricPrecision; text-rendering:geometricPrecision; image-rendering:optimizeQuality; fill-rule:evenodd; clip-rule:evenodd"
viewBox="0 0 4.91 2.95"
 xmlns:xlink="http://www.w3.org/1999/xlink">
 <defs>
  <style type="text/css">
   <![CDATA[
    .fil2 {fill:#FEFEFE}
    .fil0 {fill:#FEFEFE}
    .fil1 {fill:#201E1E}
   ]]>
  </style>
 </defs>
 <g id="Capa_x0020_1">
  <metadata id="CorelCorpID_0Corel-Layer"/>
  <path class="fil0" d="M1.89 1.65l-0.72 0c0,0.02 0.01,0.03 0.01,0.07 0,0.02 -0.01,0.04 -0.01,0.07 -0.01,0.02 -0.02,0.03 -0.03,0.05 -0.02,0.02 -0.03,0.02 -0.05,0.04 0.01,0 0.02,0.01 0.03,0.02 0.09,0.07 0.12,0.23 -0.01,0.29 -0.05,0.03 -0.09,0.03 -0.15,0.03 -0.01,0.01 -0.04,0.09 -0.04,0.11l0.73 -0.01 0.06 -0.17 -0.52 0 0.03 -0.09 0.52 0 0.05 -0.15 -0.52 0 0.03 -0.09 0.52 0 0.07 -0.17z"/>
  <path class="fil1" d="M2.68 1.62l-0.13 0c-0.01,0.02 -0.03,0.04 -0.04,0.06 -0.02,0.02 -0.03,0.03 -0.05,0.05l-0.09 0.11c0,0.01 0,0 0,0.01l0.01 -0.23 -0.13 0 -0.18 0.42 0.05 0c0.01,-0.01 0.05,-0.1 0.05,-0.12l0.04 -0.09c0.01,0 0.01,-0.03 0.02,-0.03l-0.01 0.24 0.05 0c0.01,-0.01 0.02,-0.02 0.03,-0.03 0.05,-0.06 0.11,-0.15 0.17,-0.21 -0.02,0.03 -0.11,0.23 -0.11,0.24l0.14 0 0.18 -0.42z"/>
  <path class="fil1" d="M3.28 1.67l0.09 0c0,0.01 -0.03,0.08 -0.04,0.09 -0.01,0.03 -0.02,0.07 -0.04,0.1l-0.09 0 0.08 -0.19zm0.08 0.24c0.01,-0.01 0.02,-0.01 0.04,-0.02 0.01,0 0.02,-0.01 0.02,-0.02 0.02,-0.02 0.05,-0.1 0.06,-0.13 0.02,-0.04 0.07,-0.12 -0.01,-0.12 -0.02,0 -0.29,0 -0.31,0 0,0.01 -0.01,0.04 -0.02,0.05 -0.01,0.04 -0.15,0.36 -0.16,0.37l0.14 0c0.02,-0.02 0.02,-0.04 0.03,-0.07 0.01,-0.01 0.03,-0.05 0.03,-0.06l0.04 0 -0.01 0.13 0.14 0 0.01 -0.13z"/>
  <path class="fil1" d="M2.78 1.86c0,-0.01 0.05,-0.12 0.06,-0.15 0.01,-0.03 0.01,-0.04 0.03,-0.04l0.08 0c0,0.01 -0.08,0.17 -0.08,0.19l-0.09 0zm0.15 0.18c0.01,-0.02 0.05,-0.1 0.06,-0.13l0.08 -0.2c0.01,-0.02 0.03,-0.05 0.02,-0.07 -0.01,-0.03 -0.05,-0.02 -0.08,-0.02 -0.04,0 -0.07,0 -0.1,0 -0.08,0 -0.14,-0.01 -0.18,0.03 -0.02,0.03 -0.04,0.09 -0.06,0.13 -0.01,0.03 -0.11,0.25 -0.11,0.26l0.14 0 0.06 -0.13 0.09 0 -0.06 0.13 0.14 0z"/>
  <path class="fil1" d="M3.56 1.67l0.1 0c0,0.01 -0.01,0.03 -0.02,0.05 0,0.01 -0.01,0.03 -0.02,0.04 -0.01,0.03 -0.02,0.06 -0.04,0.1 -0.01,0.02 -0.07,0.17 -0.08,0.18l0.14 0 0.04 -0.09c0.02,-0.03 0.03,-0.06 0.04,-0.09 0.02,-0.03 0.03,-0.07 0.04,-0.1 0.01,-0.01 0.04,-0.08 0.04,-0.09l0.11 0 0.02 -0.05c-0.1,0 -0.24,0 -0.35,0 -0.01,0 -0.01,0.01 -0.01,0.02 -0.01,0.01 -0.01,0.02 -0.01,0.03z"/>
  <path class="fil0" d="M2.83 2.15l0.04 0 -0.04 0.1 -0.04 0 0.04 -0.1zm0.21 0l0.05 0 -0.04 0.1 -0.05 0 0.04 -0.1zm-0.05 0.12c0.13,0 0.11,0.02 0.16,-0.09 0.02,-0.05 0.02,-0.05 -0.04,-0.05 -0.04,0 -0.09,-0.01 -0.13,0l-0.07 0.16 -0.03 -0.02c0.01,-0.01 0.02,-0.02 0.03,-0.04 0.01,-0.02 0.04,-0.08 0.03,-0.09 0,-0.02 -0.05,-0.01 -0.08,-0.01 -0.03,0 -0.06,-0.01 -0.09,0l-0.09 0.21 0.06 0c0.01,0 0.01,0 0.01,-0.01l0.03 -0.06c0.04,0 0.07,0.01 0.1,0 0.01,0 0.02,0.01 0.03,0.02l-0.02 0.05 0.07 0 0.01 -0.01c0.01,-0.02 0.01,-0.03 0.02,-0.06z"/>
  <path class="fil0" d="M3.4 2.34c0.01,-0.03 0.08,-0.2 0.09,-0.21l-0.07 0 -0.06 0.13c0,-0.04 0.01,-0.11 0,-0.13l-0.07 0 -0.09 0.21 0.07 0c0.01,-0.01 0.02,-0.05 0.03,-0.06 0.01,-0.01 0.01,-0.02 0.02,-0.04 0,0 0.01,-0.02 0.01,-0.03l-0.01 0.13 0.08 0z"/>
  <path class="fil0" d="M2.61 2.15l0.01 0 0.02 0 0.02 0 -0.07 0.16 -0.05 0 0.07 -0.16zm0.12 0.01c0,-0.03 -0.01,-0.03 -0.03,-0.03 -0.17,-0.01 -0.14,-0.01 -0.19,0.1 -0.01,0.02 -0.03,0.06 -0.04,0.08 -0.01,0.04 0.03,0.03 0.09,0.03 0.05,0 0.08,0.01 0.1,-0.02 0.01,-0.01 0.01,-0.03 0.02,-0.04 0,-0.02 0.01,-0.03 0.01,-0.04 0.01,-0.03 0.03,-0.06 0.04,-0.08z"/>
  <path class="fil0" d="M2.41 2.13l-0.07 0 -0.09 0.21 0.06 0c0.01,0 0.01,0 0.01,-0.01l0.03 -0.06 0.04 0 -0.03 0.07 0.07 0c0.01,0 0.09,-0.2 0.09,-0.21l-0.07 0 -0.05 0.12 -0.04 0 0.05 -0.12z"/>
  <path class="fil0" d="M3.57 2.15l0.05 0 -0.02 0.04 0.07 0c0.01,-0.01 0.04,-0.06 -0.01,-0.06 -0.13,0 -0.14,-0.02 -0.17,0.05 -0.01,0.02 -0.02,0.05 -0.03,0.07 -0.04,0.08 -0.04,0.09 0.02,0.09 0.02,0 0.04,0 0.05,0 0.05,0 0.07,0 0.09,-0.02 0.01,-0.01 0.03,-0.07 0.03,-0.08l-0.09 0c-0.01,0 -0.01,0.01 -0.01,0.02 0,0 -0.01,0 -0.01,0.01l0.03 0 -0.02 0.04 -0.05 0 0.07 -0.16z"/>
  <path class="fil0" d="M3.18 2.34c0,-0.01 0.09,-0.21 0.09,-0.21l-0.07 0 -0.09 0.21 0.07 0z"/>
  <path class="fil0" d="M4.45 2.95c0.01,0 0.42,0 0.46,0l0 -1.07 -0.46 -0.17 0 1.24z"/>
  <path class="fil0" d="M1.95 0.73c0,0 0.07,-0.03 0.08,-0.04 0.2,-0.11 0.49,-0.17 0.72,-0.16 0.22,0 0.44,0.04 0.63,0.13 0.04,0.02 0.08,0.04 0.12,0.07 0.01,0 0.03,0.01 0.04,0.02 0.02,-0.1 0.01,-0.24 -0.03,-0.32 -0.17,-0.44 -0.85,-0.53 -1.25,-0.32 -0.13,0.08 -0.22,0.17 -0.28,0.3 -0.04,0.09 -0.05,0.22 -0.03,0.32z"/>
  <path class="fil0" d="M3.84 1.57l0.17 0 -0.06 0.15 -0.11 0 0 1.23 0.47 0 0 -0.02c0.01,-0.37 0,-0.75 0,-1.12 0,-0.04 0.01,-0.09 0,-0.12 0,-0.02 -0.02,-0.03 -0.03,-0.03 -0.04,-0.02 -0.42,-0.15 -0.44,-0.16l0 0.05 0 0.02z"/>
  <path class="fil0" d="M3.32 2.95l0 -0.46c-0.04,-0.01 -0.08,-0.01 -0.11,-0.02 -0.13,-0.02 -0.24,-0.02 -0.37,-0.03l0 0.51 0.48 0z"/>
  <path class="fil0" d="M2.84 1.09c0.08,-0.01 0.17,0 0.25,0.01 0.04,0 0.08,0.01 0.11,0.02 0.04,0.01 0.08,0.02 0.12,0.02 -0.01,-0.07 0,-0.14 0,-0.22 0,-0.08 0,-0.11 -0.07,-0.15 -0.09,-0.05 -0.29,-0.08 -0.41,-0.09l0 0.41z"/>
  <path class="fil0" d="M2.18 1.14c0.04,0 0.08,-0.01 0.11,-0.02 0.04,-0.01 0.08,-0.01 0.12,-0.02 0.03,-0.01 0.08,-0.01 0.12,-0.01 0.02,0 0.04,0 0.06,0 0.02,0 0.06,0 0.07,0l0 -0.4c-0.03,-0.01 -0.19,0.01 -0.22,0.02 -0.07,0.01 -0.14,0.03 -0.19,0.06 -0.02,0.01 -0.05,0.03 -0.06,0.05 -0.02,0.05 -0.01,0.26 -0.01,0.32z"/>
  <path class="fil0" d="M2.84 1.21l0 0.36c0.08,0 0.21,-0.01 0.25,0.01 0.01,0 0.02,0.01 0.03,0.01l0.01 -0.02 0.19 0c0,-0.07 0,-0.2 -0.03,-0.27 -0.01,-0.02 -0.03,-0.03 -0.06,-0.04 -0.09,-0.04 -0.28,-0.06 -0.39,-0.05z"/>
  <path class="fil0" d="M3.45 2.95l0.27 0c0,-0.11 0,-0.23 -0.01,-0.33 -0.01,-0.03 -0.02,-0.03 -0.04,-0.05 -0.01,-0.01 -0.03,-0.02 -0.06,-0.03 -0.02,-0.01 -0.12,-0.03 -0.15,-0.02l-0.01 0.43z"/>
  <path class="fil0" d="M3.7 1.27c0.01,-0.09 0,-0.19 -0.04,-0.27 -0.04,-0.06 -0.11,-0.12 -0.21,-0.13 0,0.05 0,0.1 0,0.15 0,0.05 0,0.11 0,0.16 0.01,0.04 0.05,0.06 0.09,0.07 0.03,0.01 0.14,0.03 0.16,0.02z"/>
  <path class="fil0" d="M3.45 1.57c0.04,0 0.05,0 0.08,0.02l0.01 -0.02 0.18 0c0,-0.04 0,-0.08 -0.01,-0.11 -0.01,-0.04 -0.03,-0.05 -0.06,-0.07 -0.04,-0.03 -0.11,-0.06 -0.19,-0.06l-0.01 0.24z"/>
  <path class="fil0" d="M3.46 2.39c0.1,0.02 0.14,0.02 0.26,0.05l0 -0.21c-0.03,0.04 -0.04,0.11 -0.07,0.14 -0.06,0.04 -0.1,0.02 -0.19,0.02z"/>
  <path class="fil2" d="M3.54 1.81c0.01,-0.01 0.04,-0.08 0.04,-0.09l-0.03 0 -0.03 0.08 0.02 0.01z"/>
  <path class="fil1" d="M0.46 1.72c0.13,0.01 0.29,0.01 0.42,0.01 0.04,-0.01 0.08,0 0.07,0.05 -0.01,0.03 -0.06,0.03 -0.1,0.03l-0.41 0c-0.01,0.01 -0.02,0.03 -0.02,0.03 -0.01,0.03 -0.03,0.08 -0.03,0.1 0.15,0 0.32,0 0.48,0 0.05,0 0.09,0.01 0.09,0.06 0,0.02 -0.02,0.03 -0.04,0.03 -0.05,0 -0.2,0 -0.24,0 -0.11,0 -0.22,0 -0.32,0l-0.07 0.17c0.06,0.01 0.12,0 0.18,0l0.34 0c0.13,0 0.35,0.02 0.36,-0.13 0.01,-0.05 -0.01,-0.09 -0.03,-0.12 -0.04,-0.05 -0.07,-0.05 -0.09,-0.07 0.01,-0.01 0.03,-0.02 0.04,-0.03 0.01,-0.01 0.02,-0.02 0.03,-0.03 0.02,-0.03 0.04,-0.06 0.04,-0.09 0,-0.19 -0.22,-0.18 -0.36,-0.18 -0.09,0 -0.18,0 -0.27,0l-0.07 0.17z"/>
  <path class="fil0" d="M0.36 2.6c0.06,-0.01 0.11,0.03 0.12,0.07 0.01,0.06 -0.03,0.1 -0.08,0.11 -0.06,0.01 -0.1,-0.03 -0.11,-0.07 -0.02,-0.06 0.02,-0.11 0.07,-0.11zm-0.18 0.1c0.01,0.09 0.09,0.18 0.2,0.18 0.11,0 0.19,-0.09 0.19,-0.19 -0.01,-0.09 -0.09,-0.18 -0.2,-0.18 -0.11,0 -0.19,0.08 -0.19,0.19z"/>
  <path class="fil0" d="M1.59 2.69c0,-0.05 0.04,-0.1 0.09,-0.1 0.06,0 0.1,0.05 0.11,0.09 0,0.06 -0.04,0.1 -0.1,0.1 -0.05,0 -0.09,-0.04 -0.1,-0.09zm-0.1 0.01c0.01,0.09 0.09,0.18 0.2,0.18 0.11,0 0.19,-0.09 0.18,-0.2 -0.01,-0.09 -0.09,-0.17 -0.2,-0.17 -0.11,0 -0.19,0.09 -0.18,0.19z"/>
  <path class="fil0" d="M2.54 1.53c0.01,-0.01 0.04,-0.08 0.04,-0.1 0.02,-0.04 0.01,-0.08 -0.03,-0.09 -0.03,0 -0.26,0 -0.3,0 -0.04,0 -0.11,-0.01 -0.14,0.01 -0.08,0.03 -0.1,0.09 -0.12,0.15 -0.02,0.04 -0.03,0.07 -0.04,0.1 -0.03,0.06 -0.05,0.13 -0.08,0.2l-0.11 0.29c-0.02,0.04 -0.02,0.08 0.02,0.1 0.02,0.01 0.1,0 0.14,0 0.05,0 0.1,0 0.15,0l-0.09 0.21 -1.76 0 0.04 -0.11 -0.21 0c-0.01,0.04 -0.05,0.1 -0.05,0.14 0.01,0.06 0.09,0.05 0.15,0.05 0.55,0 1.09,0 1.64,0 0.04,0 0.27,0 0.3,-0.01 0.05,-0.01 0.09,-0.05 0.11,-0.08 0.01,-0.03 0.08,-0.18 0.08,-0.2 0.02,-0.09 -0.06,-0.08 -0.11,-0.08 -0.07,0 -0.14,0 -0.2,0 0,-0.02 0.02,-0.06 0.03,-0.09 0.01,-0.03 0.02,-0.05 0.03,-0.08 0.06,-0.16 0.13,-0.32 0.19,-0.48 0,-0.01 0.01,-0.04 0.02,-0.04l0.13 0 -0.04 0.11 0.21 0z"/>
  <polygon class="fil2" points="3.49,1.93 3.45,1.93 3.46,2.02 "/>
 </g>
</svg>
